<svg width="9" height="9" viewBox="0 0 9 9" fill="none" xmlns="http://www.w3.org/2000/svg">
<g clip-path="url(#clip0_90_1124)">
<path d="M0.645262 8.35441C0.671383 8.38056 0.702401 8.40131 0.736544 8.41546C0.770688 8.42962 0.807286 8.4369 0.844246 8.4369C0.881207 8.4369 0.917805 8.42962 0.951948 8.41546C0.986092 8.40131 1.01711 8.38056 1.04323 8.35441L4.49979 4.89785L7.95776 8.35441C8.01054 8.40719 8.08211 8.43684 8.15675 8.43684C8.23138 8.43684 8.30296 8.40719 8.35573 8.35441C8.4085 8.30164 8.43815 8.23006 8.43815 8.15543C8.43815 8.0808 8.4085 8.00922 8.35573 7.95645L4.89776 4.49988L8.35432 1.04191C8.4071 0.98914 8.43675 0.917563 8.43675 0.84293C8.43675 0.768296 8.4071 0.696719 8.35432 0.643945C8.30155 0.591172 8.22997 0.561523 8.15534 0.561523C8.08071 0.561523 8.00913 0.591172 7.95636 0.643945L4.49979 4.10191L1.04182 0.645352C0.988021 0.599276 0.918812 0.575199 0.848028 0.577933C0.777244 0.580667 0.710099 0.61001 0.66001 0.6601C0.609921 0.710189 0.580577 0.777334 0.577843 0.848118C0.575109 0.918902 0.599186 0.988111 0.645262 1.04191L4.10182 4.49988L0.645262 7.95785C0.592879 8.01055 0.563477 8.08183 0.563477 8.15613C0.563477 8.23043 0.592879 8.30172 0.645262 8.35441Z" fill="black"/>
</g>
<defs>
<clipPath id="clip0_90_1124">
<rect width="9" height="9" fill="white"/>
</clipPath>
</defs>
</svg>
