<svg width="18" height="18" viewBox="0 0 18 18" fill="none" xmlns="http://www.w3.org/2000/svg">
<path d="M13.6241 4.5H12.1502V3.15C12.1502 1.41328 10.7369 0 9.0002 0C7.26348 0 5.8502 1.41328 5.8502 3.15V4.5H4.37628C3.20118 4.5 2.21593 5.41758 2.13197 6.58962L1.48907 15.5896C1.4447 16.2105 1.66221 16.8275 2.08673 17.2828C2.51082 17.7385 3.11065 18 3.73337 18H14.2671C14.8898 18 15.4896 17.7385 15.9137 17.2828C16.3382 16.8275 16.5557 16.2105 16.5114 15.5896L15.8685 6.58962C15.7845 5.41758 14.7992 4.5 13.6241 4.5ZM6.7502 3.15C6.7502 1.90944 7.75964 0.9 9.0002 0.9C10.2408 0.9 11.2502 1.90944 11.2502 3.15V4.5H6.7502V3.15ZM15.2554 16.6698C14.997 16.9471 14.6463 17.1 14.267 17.1H3.73334C3.35411 17.1 3.00339 16.9471 2.74499 16.6698C2.48702 16.3924 2.36003 16.0317 2.38685 15.6537L3.02976 6.65374C3.07986 5.95062 3.67136 5.4 4.37624 5.4H13.6241C14.329 5.4 14.9205 5.95062 14.9706 6.65378L15.6135 15.6538C15.6403 16.0317 15.5133 16.3925 15.2554 16.6698Z" fill="#ADADAD"/>
</svg>
