<svg width="10" height="10" viewBox="0 0 10 10" fill="none" xmlns="http://www.w3.org/2000/svg">
<g clip-path="url(#clip0_116_49)">
<path d="M7.56907 2.5H6.75022V1.75C6.75022 0.785156 5.96507 0 5.00022 0C4.03538 0 3.25022 0.785156 3.25022 1.75V2.5H2.43137C1.77854 2.5 1.23118 3.00977 1.18454 3.6609L0.827369 8.6609C0.802721 9.00586 0.923561 9.34863 1.1594 9.60156C1.39501 9.85473 1.72825 10 2.07421 10H7.92626C8.27219 10 8.60546 9.85473 8.84106 9.60156C9.0769 9.34863 9.19774 9.00586 9.17309 8.6609L8.81592 3.6609C8.76926 3.00977 8.2219 2.5 7.56907 2.5ZM3.75022 1.75C3.75022 1.0608 4.31102 0.5 5.00022 0.5C5.68942 0.5 6.25022 1.0608 6.25022 1.75V2.5H3.75022V1.75ZM8.47532 9.26098C8.33176 9.41504 8.13694 9.5 7.92624 9.5H2.07419C1.8635 9.5 1.66866 9.41504 1.5251 9.26098C1.38178 9.10691 1.31124 8.90648 1.32614 8.69652L1.68331 3.69652C1.71114 3.3059 2.03975 3 2.43135 3H7.56905C7.96065 3 8.28926 3.3059 8.3171 3.69654L8.67426 8.69654C8.68919 8.90648 8.61862 9.10693 8.47532 9.26098Z" fill="black"/>
</g>
<defs>
<clipPath id="clip0_116_49">
<rect width="10" height="10" fill="white"/>
</clipPath>
</defs>
</svg>
