<svg width="20" height="20" viewBox="0 0 20 20" fill="none" xmlns="http://www.w3.org/2000/svg">
<path d="M1.4344 18.5651C1.49245 18.6232 1.56138 18.6693 1.63725 18.7008C1.71312 18.7322 1.79445 18.7484 1.87659 18.7484C1.95872 18.7484 2.04005 18.7322 2.11593 18.7008C2.1918 18.6693 2.26073 18.6232 2.31878 18.5651L10 10.8838L17.6844 18.5651C17.8017 18.6824 17.9607 18.7483 18.1266 18.7483C18.2924 18.7483 18.4515 18.6824 18.5688 18.5651C18.686 18.4478 18.7519 18.2888 18.7519 18.1229C18.7519 17.9571 18.686 17.798 18.5688 17.6807L10.8844 9.99947L18.5656 2.31509C18.6829 2.19782 18.7488 2.03876 18.7488 1.87291C18.7488 1.70705 18.6829 1.54799 18.5656 1.43072C18.4484 1.31344 18.2893 1.24756 18.1235 1.24756C17.9576 1.24756 17.7985 1.31344 17.6813 1.43072L10 9.11509L2.31565 1.43384C2.19609 1.33145 2.04229 1.27795 1.88499 1.28402C1.72769 1.2901 1.57848 1.35531 1.46717 1.46662C1.35586 1.57793 1.29066 1.72714 1.28458 1.88444C1.27851 2.04173 1.33201 2.19553 1.4344 2.31509L9.11565 9.99947L1.4344 17.6838C1.31799 17.8009 1.25266 17.9594 1.25266 18.1245C1.25266 18.2896 1.31799 18.448 1.4344 18.5651Z" fill="black"/>
</svg>
