<svg width="24" height="16" viewBox="0 0 24 16" fill="none" xmlns="http://www.w3.org/2000/svg">
<path d="M0.625 13.0984H23.375V14.2319H0.625V13.0984Z" fill="white"/>
<path d="M0.625 10.8315H23.375V11.965H0.625V10.8315Z" fill="white"/>
<path d="M0.625 8.56467H23.375V9.6981H0.625V8.56467Z" fill="white"/>
<path d="M0.625 6.30185H23.375V7.43529H0.625V6.30185Z" fill="white"/>
<path d="M0.625 4.03497H23.375V5.16841H0.625V4.03497Z" fill="white"/>
<path d="M0.625 1.7681H23.375V2.90153H0.625V1.7681Z" fill="white"/>
<path d="M0.625 14.2319H23.375V15.3653H0.625V14.2319Z" fill="#BD3D44"/>
<path d="M0.625 11.965H23.375V13.0984H0.625V11.965Z" fill="#BD3D44"/>
<path d="M0.625 9.69812H23.375V10.8316H0.625V9.69812Z" fill="#BD3D44"/>
<path d="M0.625 7.4353H23.375V8.56874H0.625V7.4353Z" fill="#BD3D44"/>
<path d="M0.625 5.16843H23.375V6.30186H0.625V5.16843Z" fill="#BD3D44"/>
<path d="M0.625 2.90155H23.375V4.03499H0.625V2.90155Z" fill="#BD3D44"/>
<path d="M0.625 0.634674H23.375V1.76811H0.625V0.634674Z" fill="#BD3D44"/>
<path d="M0.625 0.634674H10.2166V7.32155H0.625V0.634674Z" fill="#192F5D"/>
<path d="M1.2912 1.695L1.5187 1.52843L1.7462 1.695L1.66089 1.42687L1.88839 1.26437H1.60808L1.5187 0.996246L1.43339 1.26437H1.15308L1.38058 1.42687L1.2912 1.695Z" fill="white"/>
<path d="M1.5187 2.31656L1.43339 2.58468H1.15308L1.38058 2.74718L1.2912 3.01531L1.5187 2.84875L1.7462 3.01531L1.66089 2.74718L1.88839 2.58468H1.60808L1.5187 2.31656Z" fill="white"/>
<path d="M1.5187 3.63687L1.43339 3.905H1.15308L1.38058 4.0675L1.2912 4.33562L1.5187 4.16906L1.7462 4.33562L1.66089 4.0675L1.88839 3.905H1.60808L1.5187 3.63687Z" fill="white"/>
<path d="M1.5187 4.95718L1.43339 5.22125H1.15308L1.38058 5.38781L1.2912 5.65593L1.5187 5.48937L1.7462 5.65593L1.66089 5.38781L1.88839 5.22125H1.60808L1.5187 4.95718Z" fill="white"/>
<path d="M1.60808 6.54156L1.5187 6.2775L1.43339 6.54156H1.15308L1.38058 6.70812L1.2912 6.97625L1.5187 6.80968L1.7462 6.97625L1.66089 6.70812L1.88839 6.54156H1.60808Z" fill="white"/>
<path d="M2.77402 1.695L3.00152 1.52843L3.22496 1.695L3.13965 1.42687L3.36715 1.26437H3.08684L3.00152 0.996246L2.91215 1.26437H2.63184L2.85934 1.42687L2.77402 1.695Z" fill="white"/>
<path d="M3.00152 2.31656L2.91215 2.58468H2.63184L2.85934 2.74718L2.77402 3.01531L3.00152 2.84875L3.22496 3.01531L3.13965 2.74718L3.36715 2.58468H3.08684L3.00152 2.31656Z" fill="white"/>
<path d="M3.00152 3.63687L2.91215 3.905H2.63184L2.85934 4.0675L2.77402 4.33562L3.00152 4.16906L3.22496 4.33562L3.13965 4.0675L3.36715 3.905H3.08684L3.00152 3.63687Z" fill="white"/>
<path d="M3.00152 4.95718L2.91215 5.22125H2.63184L2.85934 5.38781L2.77402 5.65593L3.00152 5.48937L3.22496 5.65593L3.13965 5.38781L3.36715 5.22125H3.08684L3.00152 4.95718Z" fill="white"/>
<path d="M3.08684 6.54156L3.00152 6.2775L2.91215 6.54156H2.63184L2.85934 6.70812L2.77402 6.97625L3.00152 6.80968L3.22496 6.97625L3.13965 6.70812L3.36715 6.54156H3.08684Z" fill="white"/>
<path d="M4.25278 1.695L4.48028 1.52843L4.70372 1.695L4.61841 1.42687L4.84591 1.26437H4.5656L4.48028 0.996246L4.39091 1.26437H4.1106L4.3381 1.42687L4.25278 1.695Z" fill="white"/>
<path d="M4.48028 2.31656L4.39091 2.58468H4.1106L4.3381 2.74718L4.25278 3.01531L4.48028 2.84875L4.70372 3.01531L4.61841 2.74718L4.84591 2.58468H4.5656L4.48028 2.31656Z" fill="white"/>
<path d="M4.48028 3.63687L4.39091 3.905H4.1106L4.3381 4.0675L4.25278 4.33562L4.48028 4.16906L4.70372 4.33562L4.61841 4.0675L4.84591 3.905H4.5656L4.48028 3.63687Z" fill="white"/>
<path d="M4.48028 4.95718L4.39091 5.22125H4.1106L4.3381 5.38781L4.25278 5.65593L4.48028 5.48937L4.70372 5.65593L4.61841 5.38781L4.84591 5.22125H4.5656L4.48028 4.95718Z" fill="white"/>
<path d="M4.5656 6.54156L4.48028 6.2775L4.39091 6.54156H4.1106L4.3381 6.70812L4.25278 6.97625L4.48028 6.80968L4.70372 6.97625L4.61841 6.70812L4.84591 6.54156H4.5656Z" fill="white"/>
<path d="M5.73163 1.695L5.95913 1.52843L6.18663 1.695L6.09726 1.42687L6.32476 1.26437H6.04444L5.95913 0.996246L5.86976 1.26437H5.59351L5.81694 1.42687L5.73163 1.695Z" fill="white"/>
<path d="M5.95913 2.31656L5.86976 2.58468H5.59351L5.81694 2.74718L5.73163 3.01531L5.95913 2.84875L6.18663 3.01531L6.09726 2.74718L6.32476 2.58468H6.04444L5.95913 2.31656Z" fill="white"/>
<path d="M5.95913 3.63687L5.86976 3.905H5.59351L5.81694 4.0675L5.73163 4.33562L5.95913 4.16906L6.18663 4.33562L6.09726 4.0675L6.32476 3.905H6.04444L5.95913 3.63687Z" fill="white"/>
<path d="M5.95913 4.95718L5.86976 5.22125H5.59351L5.81694 5.38781L5.73163 5.65593L5.95913 5.48937L6.18663 5.65593L6.09726 5.38781L6.32476 5.22125H6.04444L5.95913 4.95718Z" fill="white"/>
<path d="M6.04444 6.54156L5.95913 6.2775L5.86976 6.54156H5.59351L5.81694 6.70812L5.73163 6.97625L5.95913 6.80968L6.18663 6.97625L6.09726 6.70812L6.32476 6.54156H6.04444Z" fill="white"/>
<path d="M7.21015 1.695L7.43765 1.52843L7.66515 1.695L7.57577 1.42687L7.80327 1.26437H7.52296L7.43765 0.996246L7.35233 1.26437H7.07202L7.29952 1.42687L7.21015 1.695Z" fill="white"/>
<path d="M7.43765 2.31656L7.35233 2.58468H7.07202L7.29952 2.74718L7.21015 3.01531L7.43765 2.84875L7.66515 3.01531L7.57577 2.74718L7.80327 2.58468H7.52296L7.43765 2.31656Z" fill="white"/>
<path d="M7.43765 3.63687L7.35233 3.905H7.07202L7.29952 4.0675L7.21015 4.33562L7.43765 4.16906L7.66515 4.33562L7.57577 4.0675L7.80327 3.905H7.52296L7.43765 3.63687Z" fill="white"/>
<path d="M7.43765 4.95718L7.35233 5.22125H7.07202L7.29952 5.38781L7.21015 5.65593L7.43765 5.48937L7.66515 5.65593L7.57577 5.38781L7.80327 5.22125H7.52296L7.43765 4.95718Z" fill="white"/>
<path d="M7.52296 6.54156L7.43765 6.2775L7.35233 6.54156H7.07202L7.29952 6.70812L7.21015 6.97625L7.43765 6.80968L7.66515 6.97625L7.57577 6.70812L7.80327 6.54156H7.52296Z" fill="white"/>
<path d="M8.69297 1.695L8.91641 1.52843L9.14391 1.695L9.05859 1.42687L9.28609 1.26437H9.00578L8.91641 0.996246L8.83109 1.26437H8.55078L8.77828 1.42687L8.69297 1.695Z" fill="white"/>
<path d="M8.91641 2.31656L8.83109 2.58468H8.55078L8.77828 2.74718L8.69297 3.01531L8.91641 2.84875L9.14391 3.01531L9.05859 2.74718L9.28609 2.58468H9.00578L8.91641 2.31656Z" fill="white"/>
<path d="M8.91641 3.63687L8.83109 3.905H8.55078L8.77828 4.0675L8.69297 4.33562L8.91641 4.16906L9.14391 4.33562L9.05859 4.0675L9.28609 3.905H9.00578L8.91641 3.63687Z" fill="white"/>
<path d="M8.91641 4.95718L8.83109 5.22125H8.55078L8.77828 5.38781L8.69297 5.65593L8.91641 5.48937L9.14391 5.65593L9.05859 5.38781L9.28609 5.22125H9.00578L8.91641 4.95718Z" fill="white"/>
<path d="M9.00578 6.54156L8.91641 6.2775L8.83109 6.54156H8.55078L8.77828 6.70812L8.69297 6.97625L8.91641 6.80968L9.14391 6.97625L9.05859 6.70812L9.28609 6.54156H9.00578Z" fill="white"/>
<path d="M2.03452 2.42217L2.25796 2.25561L2.48546 2.42217L2.40015 2.15404L2.62765 1.98748H2.34733L2.25796 1.72342L2.17265 1.98748H1.89233L2.11983 2.15404L2.03452 2.42217Z" fill="white"/>
<path d="M2.25796 3.04373L2.17265 3.30779H1.89233L2.11983 3.47436L2.03452 3.73842L2.25796 3.57592L2.48546 3.73842L2.40015 3.47436L2.62765 3.30779H2.34733L2.25796 3.04373Z" fill="white"/>
<path d="M2.25796 4.36404L2.17265 4.62811H1.89233L2.11983 4.79467L2.03452 5.05873L2.25796 4.89623L2.48546 5.05873L2.40015 4.79467L2.62765 4.62811H2.34733L2.25796 4.36404Z" fill="white"/>
<path d="M2.25796 5.68436L2.17265 5.94842H1.89233L2.11983 6.11498L2.03452 6.37904L2.25796 6.21654L2.48546 6.37904L2.40015 6.11498L2.62765 5.94842H2.34733L2.25796 5.68436Z" fill="white"/>
<path d="M3.51328 2.42217L3.74078 2.25561L3.96422 2.42217L3.87891 2.15404L4.10641 1.98748H3.82609L3.74078 1.72342L3.65141 1.98748H3.37109L3.59859 2.15404L3.51328 2.42217Z" fill="white"/>
<path d="M3.74078 3.04373L3.65141 3.30779H3.37109L3.59859 3.47436L3.51328 3.73842L3.74078 3.57592L3.96422 3.73842L3.87891 3.47436L4.10641 3.30779H3.82609L3.74078 3.04373Z" fill="white"/>
<path d="M3.74078 4.36404L3.65141 4.62811H3.37109L3.59859 4.79467L3.51328 5.05873L3.74078 4.89623L3.96422 5.05873L3.87891 4.79467L4.10641 4.62811H3.82609L3.74078 4.36404Z" fill="white"/>
<path d="M3.74078 5.68436L3.65141 5.94842H3.37109L3.59859 6.11498L3.51328 6.37904L3.74078 6.21654L3.96422 6.37904L3.87891 6.11498L4.10641 5.94842H3.82609L3.74078 5.68436Z" fill="white"/>
<path d="M4.99204 2.42217L5.21954 2.25561L5.44704 2.42217L5.35767 2.15404L5.58517 1.98748H5.30485L5.21954 1.72342L5.13423 1.98748H4.84985L5.07735 2.15404L4.99204 2.42217Z" fill="white"/>
<path d="M5.21954 3.04373L5.13423 3.30779H4.84985L5.07735 3.47436L4.99204 3.73842L5.21954 3.57592L5.44704 3.73842L5.35767 3.47436L5.58517 3.30779H5.30485L5.21954 3.04373Z" fill="white"/>
<path d="M5.21954 4.36404L5.13423 4.62811H4.84985L5.07735 4.79467L4.99204 5.05873L5.21954 4.89623L5.44704 5.05873L5.35767 4.79467L5.58517 4.62811H5.30485L5.21954 4.36404Z" fill="white"/>
<path d="M5.21954 5.68436L5.13423 5.94842H4.84985L5.07735 6.11498L4.99204 6.37904L5.21954 6.21654L5.44704 6.37904L5.35767 6.11498L5.58517 5.94842H5.30485L5.21954 5.68436Z" fill="white"/>
<path d="M6.47089 2.42217L6.69839 2.25561L6.92589 2.42217L6.83651 2.15404L7.06401 1.98748H6.7837L6.69839 1.72342L6.61308 1.98748H6.33276L6.56026 2.15404L6.47089 2.42217Z" fill="white"/>
<path d="M6.69839 3.04373L6.61308 3.30779H6.33276L6.56026 3.47436L6.47089 3.73842L6.69839 3.57592L6.92589 3.73842L6.83651 3.47436L7.06401 3.30779H6.7837L6.69839 3.04373Z" fill="white"/>
<path d="M6.69839 4.36404L6.61308 4.62811H6.33276L6.56026 4.79467L6.47089 5.05873L6.69839 4.89623L6.92589 5.05873L6.83651 4.79467L7.06401 4.62811H6.7837L6.69839 4.36404Z" fill="white"/>
<path d="M6.69839 5.68436L6.61308 5.94842H6.33276L6.56026 6.11498L6.47089 6.37904L6.69839 6.21654L6.92589 6.37904L6.83651 6.11498L7.06401 5.94842H6.7837L6.69839 5.68436Z" fill="white"/>
<path d="M7.94965 2.42217L8.17715 2.25561L8.40465 2.42217L8.31934 2.15404L8.54277 1.98748H8.26246L8.17715 1.72342L8.09184 1.98748H7.81152L8.03902 2.15404L7.94965 2.42217Z" fill="white"/>
<path d="M8.17715 3.04373L8.09184 3.30779H7.81152L8.03902 3.47436L7.94965 3.73842L8.17715 3.57592L8.40465 3.73842L8.31934 3.47436L8.54277 3.30779H8.26246L8.17715 3.04373Z" fill="white"/>
<path d="M8.17715 4.36404L8.09184 4.62811H7.81152L8.03902 4.79467L7.94965 5.05873L8.17715 4.89623L8.40465 5.05873L8.31934 4.79467L8.54277 4.62811H8.26246L8.17715 4.36404Z" fill="white"/>
<path d="M8.17715 5.68436L8.09184 5.94842H7.81152L8.03902 6.11498L7.94965 6.37904L8.17715 6.21654L8.40465 6.37904L8.31934 6.11498L8.54277 5.94842H8.26246L8.17715 5.68436Z" fill="white"/>
</svg>
