<svg width="49" height="48" viewBox="0 0 49 48" fill="none" xmlns="http://www.w3.org/2000/svg">
<path d="M24.6662 3.99902C16.6783 3.99902 10.1797 10.4976 10.1797 18.4854C10.1797 28.3986 23.1436 42.9516 23.6956 43.5662C24.214 44.1436 25.1192 44.1426 25.6368 43.5662C26.1886 42.9516 39.1526 28.3986 39.1526 18.4854C39.1524 10.4976 32.654 3.99902 24.6662 3.99902ZM24.6662 25.774C20.6472 25.774 17.3777 22.5044 17.3777 18.4854C17.3777 14.4665 20.6473 11.197 24.6662 11.197C28.685 11.197 31.9546 14.4666 31.9546 18.4855C31.9546 22.5044 28.685 25.774 24.6662 25.774Z" fill="#F4F4F4"/>
</svg>
