<svg width="49" height="48" viewBox="0 0 49 48" fill="none" xmlns="http://www.w3.org/2000/svg">
<path d="M34.666 42.0006C31.3586 41.9976 28.1026 41.1802 25.186 39.6206L24.286 39.1206C18.0675 35.7772 12.9694 30.679 9.62602 24.4606L9.12602 23.5606C7.52566 20.6274 6.68028 17.3419 6.66602 14.0005V12.6605C6.66518 11.5945 7.08994 10.5721 7.84602 9.82053L11.226 6.44053C11.5543 6.10973 12.0176 5.9503 12.4799 6.00906C12.9422 6.06782 13.351 6.33814 13.586 6.74054L18.086 14.4605C18.5411 15.2463 18.4097 16.2401 17.766 16.8805L13.986 20.6606C13.6721 20.971 13.599 21.4506 13.806 21.8406L14.506 23.1606C17.0201 27.8174 20.8446 31.635 25.506 34.1406L26.826 34.8606C27.216 35.0676 27.6956 34.9944 28.006 34.6806L31.786 30.9006C32.4264 30.257 33.4202 30.1256 34.206 30.5806L41.926 35.0806C42.3284 35.3156 42.5988 35.7244 42.6574 36.1866C42.7162 36.649 42.5568 37.1124 42.226 37.4406L38.846 40.8206C38.0944 41.5766 37.072 42.0014 36.006 42.0006H34.666Z" fill="#F4F4F4"/>
</svg>
