<svg width="10" height="10" viewBox="0 0 10 10" fill="none" xmlns="http://www.w3.org/2000/svg">
<g clip-path="url(#clip0_122_310)">
<path d="M9.59602 9.15406L6.97586 6.53398C7.53484 5.87477 7.87305 5.02281 7.87305 4.09289C7.87297 2.00836 6.17719 0.3125 4.09273 0.3125C2.00828 0.3125 0.3125 2.00836 0.3125 4.09289C0.3125 6.17734 2.00828 7.87313 4.09273 7.87313C5.02274 7.87313 5.87477 7.53492 6.53391 6.97594L9.15406 9.59602C9.21508 9.65703 9.29508 9.68758 9.37508 9.68758C9.45508 9.68758 9.535 9.65703 9.5961 9.59602C9.71805 9.47398 9.71805 9.27602 9.59602 9.15406ZM0.9375 4.09289C0.9375 2.35297 2.35289 0.9375 4.09273 0.9375C5.83258 0.9375 7.24805 2.35297 7.24805 4.09289C7.24805 5.83273 5.83258 7.24813 4.09273 7.24813C2.35289 7.24805 0.9375 5.83266 0.9375 4.09289Z" fill="#ADADAD"/>
</g>
<defs>
<clipPath id="clip0_122_310">
<rect width="10" height="10" fill="white"/>
</clipPath>
</defs>
</svg>
